<?xml version="1.0" encoding="UTF-8"?>
<svg id="Calque_2" data-name="Calque 2" xmlns="http://www.w3.org/2000/svg" viewBox="0 0 96 95.89">
  <defs>
    <style>
      .cls-1 {
        fill: #fff;
      }
    </style>
  </defs>
  <g id="Calque_1-2" data-name="Calque 1">
    <g>
      <path d="M91.26,10.56c-4.78-6.61-12.27-10.56-20.03-10.56-4.35,0-8.5,1.22-12.35,3.63-3.82,2.39-6.33,6.01-8.17,8.65-1.12,1.61-2.39,3.44-3.07,3.48-.04,0-.08,0-.11,0-.67,0-1.65-.35-3.31-3.11C39.95,5.57,33.36,1.66,25.67,1.66h0c-7.54,0-15.3,3.9-20.27,10.17C.59,17.91-1.08,25.39.69,32.9c2.58,14.03,13.41,23.59,23.89,32.83,3.74,3.3,7.27,6.41,10.44,9.72,3.48,3.8,6.78,8.59,9.98,13.22.95,1.37,1.88,2.73,2.81,4.04l.04.05.04.05c.13.15.27.32.42.49.93,1.1,2.07,2.58,3.63,2.58.59,0,1.08-.02,1.46-.28,4.62-3.2,6.64-8.72,8.73-13.83,1.73-4.21,3.52-8.57,6.58-11.86l.06-.07.05-.08c3.08-4.6,6.65-8.9,10.11-13.06,5.99-7.21,12.18-14.66,15.75-23.69v-.03s.02-.03.02-.03c2.53-7.7,1.28-15.86-3.45-22.4Z"/>
      <path class="cls-1" d="M26.31,44.18h0c-1.38,0-2.67-.49-3.85-.89-.99-.3-1.98-.59-2.86-1.09-.59-.3-1.09-.79-1.58-1.09-1.28-1.09-2.47-1.98-3.36-3.26-2.37-3.36-2.37-7.9-.99-11.66,1.19-2.57,2.17-4.74,4.74-6.22,1.38-1.09,2.57-1.98,3.95-2.77.69-.4,1.48-.59,2.17-.79.99-.4,1.68-.69,2.57-.79.59-.3,1.38-.4,1.98-.3.69,0,1.38.3,1.98.3.3.1.79.1,1.09.2.3,0,.59.2,1.09.59.69.4,1.48.89,2.17,1.38.79.49,1.48.99,1.98,1.68,1.19,1.38,2.17,3.16,2.57,5.14.4,1.58.49,3.36.4,4.84-.1,1.09-.49,1.98-.79,3.16-.4.89-.79,1.98-1.09,3.06-.69,2.37-2.67,4.05-4.54,5.24-1.09.59-1.88,1.28-2.77,1.78-1.38.99-3.16,1.48-4.84,1.48ZM26.41,36.77h.1c1.68-.1,3.66-1.19,4.84-2.47,1.09-1.09,1.98-2.47,2.37-3.95.59-1.98.4-4.25-1.19-5.53-.69-.79-1.88-.99-2.86-1.19-1.78-.4-3.56-.49-5.24.4-2.37,1.48-4.84,4.05-4.54,7.11,0,1.38.4,2.77,1.38,3.46.69.69,1.58,1.09,2.37,1.28.89.4,1.98.89,2.77.89Z"/>
      <path class="cls-1" d="M59.8,51.56c-.06-.42-.14-.95-.47-1.36-.51-.63-2.59-1.24-3.31-1.22-1.67.05-2.99.73-3.92,2.04-.65.91-.78,2.66-.87,3.94-.02.24-.03.46-.05.65-.29,2.84-1.06,4.68-1.63,6.02-.23.56-.43,1.04-.55,1.45-.06.15-.12.21-.1.22,0,0-.08-.03-.2-.22-.08-.21-.43-.81-1.04-1.85-.78-1.34-1.96-3.36-2.08-3.84-.19-1.01-.84-1.96-1.48-2.89-.48-.71-.98-1.43-1.24-2.14-.1-.32-.18-.64-.27-.96-.28-1.04-.57-2.12-1.26-3.09-.12-.13-.22-.25-.32-.37-.73-.86-1.22-1.42-2.67-1.21-1.88.38-3.38,1.29-4.12,2.49-.48.78-.61,1.62-.39,2.44.21.79.68,1.56,1.27,2.52.32.52.68,1.11,1.06,1.81.34.55.71,1.13,1.09,1.72,1.02,1.6,2.08,3.25,2.77,4.65.28.5.61.98.93,1.44.51.74.99,1.44,1.24,2.14.4,1.01,1.1,1.88,1.78,2.72.44.54.85,1.05,1.16,1.56.06.12.12.25.18.38.27.6.59,1.27,1.1,1.78.73,1.06,2.1,1.72,3.58,1.72h.01c2.68-.11,3.48-2.37,4.02-4.45.52-1.52,1.13-3.2,1.63-4.55.31-.84.58-1.58.77-2.13.59-1.44.78-2.36.94-3.17.07-.34.13-.67.22-1.02.21-.8.59-1.6.99-2.45.72-1.54,1.47-3.13,1.22-4.79Z"/>
      <path class="cls-1" d="M62.84,29.86h0c.42.11.74-.63.84-.95.42-.53.74-1.16,1.37-1.79,1.27-1.58,2.64-3.27,3.17-5.38.63-2.64-.63-2.74-2.74-2.22-2.64.74-2.74,1.9-2.85,4.33,0,.84-.32,5.49.21,6.02ZM62.84,45.27h0c-2.22.11-3.69-.53-4.33-2.43-.32-1.06-.32-2.22-.42-3.17-.32-2.74-.63-5.38-.74-8.13-.21-1.58-.32-3.48-.53-5.17,0-1.06.21-2.01-.11-3.06-.11-.84-.53-1.58-.63-2.53-.11-1.48.53-2.64,1.48-3.59,1.48-1.9,2.32-2.53,4.75-2.43,1.48.11,2.96-.11,4.33-.21,1.9-.21,3.8-.63,5.49.21,1.58,1.06,2.43,2.74,2.43,4.54-.11,2.43-1.79,5.28-3.27,7.07-.53.63-1.79,1.79-1.37,2.53.21.32,1.06.84,1.69,1.06.84.32,1.79.63,2.64.95,3.27,1.27,9.29,1.9,9.5,5.17.11,1.69-1.37,3.06-3.06,3.59-1.16.32-2.32-.21-3.38-.74-1.58-.53-3.06-1.27-4.54-2.11-1.37-.53-2.74-1.06-4.01-1.69-.74-.32-1.37-.84-2.32-1.06-.53-.21-1.27-.42-1.79,0-.42.32-.42,1.06-.32,1.69.11,1.06.32,2.22.53,3.27.74,3.17,2.85,5.91-2.01,6.23Z"/>
    </g>
  </g>
</svg>